0
SECTION
2
HEADER
9
$ACADVER
1
AC1015
9
$INSUNITS
70
4
0
ENDSEC
0
SECTION
2
TABLES
0
TABLE
2
LAYER
70
2
0
LAYER
2
CORTE
70
0
62
7
6
CONTINUOUS
0
LAYER
2
GRAVACAO
70
0
62
8
6
CONTINUOUS
0
ENDTAB
0
ENDSEC
0
SECTION
2
ENTITIES
0
LWPOLYLINE
8
CORTE
90
10
70
1
10
20
20
700
10
20
20
845
10
85
20
845
10
85
20
940
10
150
20
940
10
150
20
1035
10
225
20
1035
10
225
20
1100
10
330
20
1100
10
330
20
700
0
LWPOLYLINE
8
CORTE
90
4
70
1
10
316
20
1055
10
319
20
1055
10
319
20
1029.8
10
316
20
1029.8
0
LWPOLYLINE
8
CORTE
90
4
70
1
10
316
20
910
10
319
20
910
10
319
20
884.8
10
316
20
884.8
0
LWPOLYLINE
8
CORTE
90
4
70
1
10
316
20
765
10
319
20
765
10
319
20
739.8
10
316
20
739.8
0
LWPOLYLINE
8
CORTE
90
4
70
1
10
65
20
717
10
90.2
20
717
10
90.2
20
714
10
65
20
714
0
LWPOLYLINE
8
CORTE
90
4
70
1
10
245
20
717
10
270.2
20
717
10
270.2
20
714
10
245
20
714
0
LWPOLYLINE
8
CORTE
90
4
70
1
10
54.971
20
771.919
10
79.936
20
775.352
10
79.528
20
778.324
10
54.563
20
774.891
0
LWPOLYLINE
8
CORTE
90
4
70
1
10
139.179
20
783.498
10
164.144
20
786.931
10
163.735
20
789.903
10
138.77
20
786.47
0
LWPOLYLINE
8
CORTE
90
4
70
1
10
33
20
830
10
36
20
830
10
36
20
809.8
10
33
20
809.8
0
LWPOLYLINE
8
CORTE
90
4
70
1
10
33
20
795
10
36
20
795
10
36
20
774.8
10
33
20
774.8
0
LWPOLYLINE
8
CORTE
90
4
70
1
10
119.971
20
866.919
10
144.936
20
870.352
10
144.528
20
873.324
10
119.563
20
869.891
0
LWPOLYLINE
8
CORTE
90
4
70
1
10
204.179
20
878.498
10
229.144
20
881.931
10
228.735
20
884.903
10
203.77
20
881.47
0
LWPOLYLINE
8
CORTE
90
4
70
1
10
98
20
925
10
101
20
925
10
101
20
904.8
10
98
20
904.8
0
LWPOLYLINE
8
CORTE
90
4
70
1
10
98
20
890
10
101
20
890
10
101
20
869.8
10
98
20
869.8
0
LWPOLYLINE
8
CORTE
90
4
70
1
10
184.971
20
961.919
10
209.936
20
965.352
10
209.528
20
968.324
10
184.563
20
964.891
0
LWPOLYLINE
8
CORTE
90
4
70
1
10
269.179
20
973.498
10
294.144
20
976.931
10
293.735
20
979.903
10
268.77
20
976.47
0
LWPOLYLINE
8
CORTE
90
4
70
1
10
163
20
1020
10
166
20
1020
10
166
20
999.8
10
163
20
999.8
0
LWPOLYLINE
8
CORTE
90
4
70
1
10
163
20
985
10
166
20
985
10
166
20
964.8
10
163
20
964.8
0
LWPOLYLINE
8
CORTE
90
4
70
1
10
185.5
20
784.8
10
188.5
20
784.8
10
188.5
20
764.6
10
185.5
20
764.6
0
LWPOLYLINE
8
CORTE
90
4
70
1
10
250.5
20
879.8
10
253.5
20
879.8
10
253.5
20
859.6
10
250.5
20
859.6
0
LWPOLYLINE
8
CORTE
90
10
70
1
10
340
20
700
10
340
20
845
10
405
20
845
10
405
20
940
10
470
20
940
10
470
20
1035
10
545
20
1035
10
545
20
1100
10
650
20
1100
10
650
20
700
0
LWPOLYLINE
8
CORTE
90
4
70
1
10
636
20
1055
10
639
20
1055
10
639
20
1029.8
10
636
20
1029.8
0
LWPOLYLINE
8
CORTE
90
4
70
1
10
636
20
910
10
639
20
910
10
639
20
884.8
10
636
20
884.8
0
LWPOLYLINE
8
CORTE
90
4
70
1
10
636
20
765
10
639
20
765
10
639
20
739.8
10
636
20
739.8
0
LWPOLYLINE
8
CORTE
90
4
70
1
10
385
20
717
10
410.2
20
717
10
410.2
20
714
10
385
20
714
0
LWPOLYLINE
8
CORTE
90
4
70
1
10
565
20
717
10
590.2
20
717
10
590.2
20
714
10
565
20
714
0
LWPOLYLINE
8
CORTE
90
4
70
1
10
374.971
20
771.919
10
399.936
20
775.352
10
399.528
20
778.324
10
374.563
20
774.891
0
LWPOLYLINE
8
CORTE
90
4
70
1
10
459.179
20
783.498
10
484.144
20
786.931
10
483.735
20
789.903
10
458.77
20
786.47
0
LWPOLYLINE
8
CORTE
90
4
70
1
10
353
20
830
10
356
20
830
10
356
20
809.8
10
353
20
809.8
0
LWPOLYLINE
8
CORTE
90
4
70
1
10
353
20
795
10
356
20
795
10
356
20
774.8
10
353
20
774.8
0
LWPOLYLINE
8
CORTE
90
4
70
1
10
439.971
20
866.919
10
464.936
20
870.352
10
464.528
20
873.324
10
439.563
20
869.891
0
LWPOLYLINE
8
CORTE
90
4
70
1
10
524.179
20
878.498
10
549.144
20
881.931
10
548.735
20
884.903
10
523.77
20
881.47
0
LWPOLYLINE
8
CORTE
90
4
70
1
10
418
20
925
10
421
20
925
10
421
20
904.8
10
418
20
904.8
0
LWPOLYLINE
8
CORTE
90
4
70
1
10
418
20
890
10
421
20
890
10
421
20
869.8
10
418
20
869.8
0
LWPOLYLINE
8
CORTE
90
4
70
1
10
504.971
20
961.919
10
529.936
20
965.352
10
529.528
20
968.324
10
504.563
20
964.891
0
LWPOLYLINE
8
CORTE
90
4
70
1
10
589.179
20
973.498
10
614.144
20
976.931
10
613.735
20
979.903
10
588.77
20
976.47
0
LWPOLYLINE
8
CORTE
90
4
70
1
10
483
20
1020
10
486
20
1020
10
486
20
999.8
10
483
20
999.8
0
LWPOLYLINE
8
CORTE
90
4
70
1
10
483
20
985
10
486
20
985
10
486
20
964.8
10
483
20
964.8
0
LWPOLYLINE
8
CORTE
90
4
70
1
10
505.5
20
784.8
10
508.5
20
784.8
10
508.5
20
764.6
10
505.5
20
764.6
0
LWPOLYLINE
8
CORTE
90
4
70
1
10
570.5
20
879.8
10
573.5
20
879.8
10
573.5
20
859.6
10
570.5
20
859.6
0
LWPOLYLINE
8
CORTE
90
28
70
1
10
672
20
1100
10
1066
20
1100
10
1066
20
1055
10
1072
20
1055
10
1072
20
1030
10
1066
20
1030
10
1066
20
910
10
1072
20
910
10
1072
20
885
10
1066
20
885
10
1066
20
765
10
1072
20
765
10
1072
20
740
10
1066
20
740
10
1066
20
700
10
672
20
700
10
672
20
740
10
666
20
740
10
666
20
765
10
672
20
765
10
672
20
885
10
666
20
885
10
666
20
910
10
672
20
910
10
672
20
1030
10
666
20
1030
10
666
20
1055
10
672
20
1055
0
LWPOLYLINE
8
CORTE
90
4
70
1
10
727
20
717
10
747
20
717
10
747
20
714
10
727
20
714
0
LWPOLYLINE
8
CORTE
90
4
70
1
10
727
20
983.5
10
747
20
983.5
10
747
20
980.472
10
727
20
980.472
0
LWPOLYLINE
8
CORTE
90
4
70
1
10
856.4
20
717
10
876.4
20
717
10
876.4
20
714
10
856.4
20
714
0
LWPOLYLINE
8
CORTE
90
4
70
1
10
856.4
20
983.5
10
876.4
20
983.5
10
876.4
20
980.472
10
856.4
20
980.472
0
LWPOLYLINE
8
CORTE
90
4
70
1
10
986
20
717
10
1006
20
717
10
1006
20
714
10
986
20
714
0
LWPOLYLINE
8
CORTE
90
4
70
1
10
986
20
983.5
10
1006
20
983.5
10
1006
20
980.472
10
986
20
980.472
0
LWPOLYLINE
8
CORTE
90
32
70
1
10
20
20
665
10
414
20
665
10
414
20
620
10
426
20
620
10
426
20
595
10
414
20
595
10
414
20
440
10
426
20
440
10
426
20
415
10
414
20
415
10
414
20
368
10
354
20
368
10
354
20
360
10
334
20
360
10
334
20
368
10
224.4
20
368
10
224.4
20
360
10
204.4
20
360
10
204.4
20
368
10
95
20
368
10
95
20
360
10
75
20
360
10
75
20
368
10
20
20
368
10
20
20
415
10
8
20
415
10
8
20
440
10
20
20
440
10
20
20
595
10
8
20
595
10
8
20
620
10
20
20
620
0
LWPOLYLINE
8
CORTE
90
4
70
1
10
12
20
612.5
10
15
20
612.5
10
15
20
602.5
10
12
20
602.5
0
LWPOLYLINE
8
CORTE
90
4
70
1
10
419
20
612.5
10
422
20
612.5
10
422
20
602.5
10
419
20
602.5
0
LWPOLYLINE
8
CORTE
90
20
70
1
10
450
20
665
10
844
20
665
10
844
20
640
10
856
20
640
10
856
20
615
10
844
20
615
10
844
20
555
10
856
20
555
10
856
20
530
10
844
20
530
10
844
20
505
10
450
20
505
10
450
20
530
10
438
20
530
10
438
20
555
10
450
20
555
10
450
20
615
10
438
20
615
10
438
20
640
10
450
20
640
0
LWPOLYLINE
8
CORTE
90
4
70
1
10
442
20
632.5
10
445
20
632.5
10
445
20
622.5
10
442
20
622.5
0
LWPOLYLINE
8
CORTE
90
4
70
1
10
849
20
632.5
10
852
20
632.5
10
852
20
622.5
10
849
20
622.5
0
LWPOLYLINE
8
CORTE
90
4
70
1
10
505
20
658
10
525
20
658
10
525
20
655
10
505
20
655
0
LWPOLYLINE
8
CORTE
90
4
70
1
10
505
20
515
10
525
20
515
10
525
20
512
10
505
20
512
0
LWPOLYLINE
8
CORTE
90
4
70
1
10
634.4
20
658
10
654.4
20
658
10
654.4
20
655
10
634.4
20
655
0
LWPOLYLINE
8
CORTE
90
4
70
1
10
634.4
20
515
10
654.4
20
515
10
654.4
20
512
10
634.4
20
512
0
LWPOLYLINE
8
CORTE
90
4
70
1
10
764
20
658
10
784
20
658
10
784
20
655
10
764
20
655
0
LWPOLYLINE
8
CORTE
90
4
70
1
10
764
20
515
10
784
20
515
10
784
20
512
10
764
20
512
0
LWPOLYLINE
8
CORTE
90
20
70
1
10
880
20
665
10
1274
20
665
10
1274
20
640
10
1286
20
640
10
1286
20
615
10
1274
20
615
10
1274
20
555
10
1286
20
555
10
1286
20
530
10
1274
20
530
10
1274
20
505
10
880
20
505
10
880
20
530
10
868
20
530
10
868
20
555
10
880
20
555
10
880
20
615
10
868
20
615
10
868
20
640
10
880
20
640
0
LWPOLYLINE
8
CORTE
90
4
70
1
10
872
20
632.5
10
875
20
632.5
10
875
20
622.5
10
872
20
622.5
0
LWPOLYLINE
8
CORTE
90
4
70
1
10
1279
20
632.5
10
1282
20
632.5
10
1282
20
622.5
10
1279
20
622.5
0
LWPOLYLINE
8
CORTE
90
4
70
1
10
935
20
658
10
955
20
658
10
955
20
655
10
935
20
655
0
LWPOLYLINE
8
CORTE
90
4
70
1
10
935
20
515
10
955
20
515
10
955
20
512
10
935
20
512
0
LWPOLYLINE
8
CORTE
90
4
70
1
10
1064.4
20
658
10
1084.4
20
658
10
1084.4
20
655
10
1064.4
20
655
0
LWPOLYLINE
8
CORTE
90
4
70
1
10
1064.4
20
515
10
1084.4
20
515
10
1084.4
20
512
10
1064.4
20
512
0
LWPOLYLINE
8
CORTE
90
4
70
1
10
1194
20
658
10
1214
20
658
10
1214
20
655
10
1194
20
655
0
LWPOLYLINE
8
CORTE
90
4
70
1
10
1194
20
515
10
1214
20
515
10
1214
20
512
10
1194
20
512
0
LWPOLYLINE
8
CORTE
90
32
70
1
10
450
20
470
10
844
20
470
10
844
20
445
10
856
20
445
10
856
20
420
10
844
20
420
10
844
20
360
10
856
20
360
10
856
20
335
10
844
20
335
10
844
20
310
10
784
20
310
10
784
20
302
10
764
20
302
10
764
20
310
10
654.4
20
310
10
654.4
20
302
10
634.4
20
302
10
634.4
20
310
10
525
20
310
10
525
20
302
10
505
20
302
10
505
20
310
10
450
20
310
10
450
20
335
10
438
20
335
10
438
20
360
10
450
20
360
10
450
20
420
10
438
20
420
10
438
20
445
10
450
20
445
0
LWPOLYLINE
8
CORTE
90
4
70
1
10
442
20
437.5
10
445
20
437.5
10
445
20
427.5
10
442
20
427.5
0
LWPOLYLINE
8
CORTE
90
4
70
1
10
849
20
437.5
10
852
20
437.5
10
852
20
427.5
10
849
20
427.5
0
LWPOLYLINE
8
CORTE
90
4
70
1
10
505
20
463
10
525
20
463
10
525
20
460
10
505
20
460
0
LWPOLYLINE
8
CORTE
90
4
70
1
10
634.4
20
463
10
654.4
20
463
10
654.4
20
460
10
634.4
20
460
0
LWPOLYLINE
8
CORTE
90
4
70
1
10
764
20
463
10
784
20
463
10
784
20
460
10
764
20
460
0
LWPOLYLINE
8
CORTE
90
32
70
1
10
20
20
270
10
414
20
270
10
414
20
260
10
420
20
260
10
420
20
240
10
414
20
240
10
414
20
225
10
420
20
225
10
420
20
205
10
414
20
205
10
414
20
200
10
354
20
200
10
354
20
192
10
334
20
192
10
334
20
200
10
224.4
20
200
10
224.4
20
192
10
204.4
20
192
10
204.4
20
200
10
95
20
200
10
95
20
192
10
75
20
192
10
75
20
200
10
20
20
200
10
20
20
205
10
14
20
205
10
14
20
225
10
20
20
225
10
20
20
240
10
14
20
240
10
14
20
260
10
20
20
260
0
LWPOLYLINE
8
CORTE
90
32
70
1
10
450
20
270
10
844
20
270
10
844
20
260
10
850
20
260
10
850
20
240
10
844
20
240
10
844
20
225
10
850
20
225
10
850
20
205
10
844
20
205
10
844
20
200
10
784
20
200
10
784
20
192
10
764
20
192
10
764
20
200
10
654.4
20
200
10
654.4
20
192
10
634.4
20
192
10
634.4
20
200
10
525
20
200
10
525
20
192
10
505
20
192
10
505
20
200
10
450
20
200
10
450
20
205
10
444
20
205
10
444
20
225
10
450
20
225
10
450
20
240
10
444
20
240
10
444
20
260
10
450
20
260
0
LWPOLYLINE
8
CORTE
90
32
70
1
10
880
20
270
10
1274
20
270
10
1274
20
260
10
1280
20
260
10
1280
20
240
10
1274
20
240
10
1274
20
225
10
1280
20
225
10
1280
20
205
10
1274
20
205
10
1274
20
200
10
1214
20
200
10
1214
20
192
10
1194
20
192
10
1194
20
200
10
1084.4
20
200
10
1084.4
20
192
10
1064.4
20
192
10
1064.4
20
200
10
955
20
200
10
955
20
192
10
935
20
192
10
935
20
200
10
880
20
200
10
880
20
205
10
874
20
205
10
874
20
225
10
880
20
225
10
880
20
240
10
874
20
240
10
874
20
260
10
880
20
260
0
LWPOLYLINE
8
CORTE
90
24
70
1
10
20
20
145
10
75
20
145
10
75
20
148
10
95
20
148
10
95
20
145
10
204.4
20
145
10
204.4
20
148
10
224.4
20
148
10
224.4
20
145
10
334
20
145
10
334
20
148
10
354
20
148
10
354
20
145
10
414
20
145
10
414
20
138
10
417
20
138
10
417
20
118
10
414
20
118
10
414
20
110
10
20
20
110
10
20
20
118
10
17
20
118
10
17
20
138
10
20
20
138
0
LWPOLYLINE
8
CORTE
90
24
70
1
10
450
20
145
10
505
20
145
10
505
20
148
10
525
20
148
10
525
20
145
10
634.4
20
145
10
634.4
20
148
10
654.4
20
148
10
654.4
20
145
10
764
20
145
10
764
20
148
10
784
20
148
10
784
20
145
10
844
20
145
10
844
20
138
10
847
20
138
10
847
20
118
10
844
20
118
10
844
20
110
10
450
20
110
10
450
20
118
10
447
20
118
10
447
20
138
10
450
20
138
0
LWPOLYLINE
8
CORTE
90
4
70
1
10
900
20
145
10
928
20
141
10
928
20
131
10
900
20
135
0
LWPOLYLINE
8
CORTE
90
4
70
1
10
965
20
145
10
993
20
141
10
993
20
131
10
965
20
135
0
LWPOLYLINE
8
CORTE
90
4
70
1
10
1030
20
145
10
1058
20
141
10
1058
20
131
10
1030
20
135
0
LWPOLYLINE
8
CORTE
90
4
70
1
10
1095
20
145
10
1123
20
141
10
1123
20
131
10
1095
20
135
0
LWPOLYLINE
8
CORTE
90
4
70
1
10
900
20
95
10
928
20
91
10
928
20
81
10
900
20
85
0
LWPOLYLINE
8
CORTE
90
4
70
1
10
965
20
95
10
993
20
91
10
993
20
81
10
965
20
85
0
LWPOLYLINE
8
CORTE
90
4
70
1
10
1030
20
95
10
1058
20
91
10
1058
20
81
10
1030
20
85
0
LWPOLYLINE
8
CORTE
90
4
70
1
10
1095
20
95
10
1123
20
91
10
1123
20
81
10
1095
20
85
0
LWPOLYLINE
8
CORTE
90
4
70
1
10
20
20
70
10
200
20
70
10
200
20
25
10
20
20
25
0
LWPOLYLINE
8
CORTE
90
4
70
1
10
60
20
70
10
62.9
20
70
10
62.9
20
52
10
60
20
52
0
LWPOLYLINE
8
CORTE
90
4
70
1
10
95
20
70
10
98
20
70
10
98
20
52
10
95
20
52
0
LWPOLYLINE
8
CORTE
90
4
70
1
10
130
20
70
10
133.1
20
70
10
133.1
20
52
10
130
20
52
0
LWPOLYLINE
8
CORTE
90
4
70
1
10
165
20
70
10
168.2
20
70
10
168.2
20
52
10
165
20
52
0
TEXT
8
GRAVACAO
10
170
20
895
40
8
1
L1 - LATERAL ESQ.
72
1
0
TEXT
8
GRAVACAO
10
490
20
895
40
8
1
L2 - LATERAL DIR.
72
1
0
TEXT
8
GRAVACAO
10
869
20
895
40
8
1
F1 - FUNDO 39,4 x 40 cm
72
1
0
TEXT
8
GRAVACAO
10
217
20
520
40
8
1
B1 - BASE 39,4 x 29,7 cm
72
1
0
TEXT
8
GRAVACAO
10
647
20
583
40
8
1
P1 - PRATELEIRA INCLINADA
72
1
0
TEXT
8
GRAVACAO
10
1077
20
583
40
8
1
P2 - PRATELEIRA INCLINADA
72
1
0
TEXT
8
GRAVACAO
10
647
20
388
40
8
1
P3 - PRATELEIRA INCLINADA
72
1
0
TEXT
8
GRAVACAO
10
217
20
233
40
8
1
FR1 - FRENTE
72
1
0
TEXT
8
GRAVACAO
10
647
20
233
40
8
1
FR2 - FRENTE
72
1
0
TEXT
8
GRAVACAO
10
1077
20
233
40
8
1
FR3 - FRENTE
72
1
0
TEXT
8
GRAVACAO
10
217
20
124
40
8
1
T1 - TRAVESSA
72
1
0
TEXT
8
GRAVACAO
10
647
20
124
40
8
1
T2 - TRAVESSA
72
1
0
TEXT
8
GRAVACAO
10
997
20
55
40
8
1
TR1-TR8 - TRAVAS
72
1
0
TEXT
8
GRAVACAO
10
110
20
10
40
8
1
CUPOM 2,90 / 3,00 / 3,10 / 3,20 mm
72
1
0
ENDSEC
0
EOF
